<?xml version="1.0" encoding="iso-8859-1"?>
<!-- Generator: Adobe Illustrator 15.0.0, SVG Export Plug-In . SVG Version: 6.00 Build 0)  -->
<!DOCTYPE svg PUBLIC "-//W3C//DTD SVG 1.1//EN" "http://www.w3.org/Graphics/SVG/1.1/DTD/svg11.dtd">
<svg version="1.1" id="Icons" xmlns="http://www.w3.org/2000/svg" xmlns:xlink="http://www.w3.org/1999/xlink" x="0px" y="0px"
	 width="100px" height="100px" viewBox="0 0 100 100" style="enable-background:new 0 0 100 100;" xml:space="preserve">
<path id="Zerply" d="M77.965,75.143c-4.342,2.368-8.23,3.645-11.764,3.645c-4.525,0-7.061-2.007-21.451-23.322
	c10.951-9.473,17.377-15.76,25.709-27.693c7.146-4.734,9.951-8.92,9.951-12.75c0-3.277-2.805-7.65-6.424-7.65
	c-1.723,0-3.082,1.635-4.889,4.462C55.791,6.73,49.549,5,42.67,5c-6.426,0-11.678,5.648-11.678,12.207
	c0,3.734,1.541,5.83,3.895,6.559c3.08-1.822,5.611-2.553,7.244-2.553c4.252,0,10.855,1.916,19.002,4.376
	C57.061,31.51,46.471,42.439,38.869,48.45c-2.896-2.458-4.705-3.368-7.332-3.368c-8.414,0-12.037,9.838-12.037,15.941
	c0,6.192,1.451,7.926,3.711,7.926c2.537,0,6.701-2.186,9.322-4.56C46.383,90.721,50.273,95,59.775,95
	C70.096,95,80.5,87.26,80.5,80.242C80.5,77.873,79.236,75.78,77.965,75.143z"/>
</svg>
